<?xml version="1.0" encoding="utf-8"?>
<svg id="master-artboard" viewBox="0 0 431.5484924316406 400.90325927734375" version="1.1" xmlns="http://www.w3.org/2000/svg" x="0px" y="0px" style="enable-background:new 0 0 1400 980;" width="431.5484924316406px" height="400.90325927734375px"><rect id="ee-background" x="0" y="0" width="431.5484924316406" height="400.90325927734375" style="fill: white; fill-opacity: 0; pointer-events: none;"/>

<g transform="matrix(1, 0, 0, 1, -499.0322265625, -281.87095642089844)">
			<path class="st1" d="M752.7,641.9c-6.8,1.4-14.9,2.8-22.7,3.5c5.5-0.8,12.5-2.2,21.4-4.6C751.9,641.2,752.3,641.5,752.7,641.9z" style="fill: rgb(65, 64, 66);"/>
			<path class="st1" d="M699.6,645.4c-7.8-0.7-15.9-2.1-22.7-3.5c0.5-0.4,0.9-0.7,1.3-1.1C687.1,643.2,694,644.6,699.6,645.4z" style="fill: rgb(65, 64, 66);"/>
			<g>
				<path class="st2" d="M672.1,565.7C672.1,565.7,672.1,565.7,672.1,565.7l-0.6,0.7c-15.1,18.4-23.7,26.6-28.4,30.3&#10;&#9;&#9;&#9;&#9;&#9;c-0.4,0.2-0.6,0.3-0.8,0.4l-0.4,0.2c-0.3,0.1-0.6,0.1-0.9,0.1c-0.4,0-1-0.1-1.5-0.3c-0.5-0.1-1-0.2-1.5-0.3l0,0l0,0&#10;&#9;&#9;&#9;&#9;&#9;c-5.1-0.7-13.6-4.7-22.5-10.2c0,0-0.1,0-0.1-0.1c0,0,0,0,0,0c-11.5-7.3-23.5-17-28.5-24.7c-0.1-0.3-0.3-0.5-0.4-0.8&#10;&#9;&#9;&#9;&#9;&#9;c-0.2-0.3-0.3-0.6-0.5-0.9c-0.4-1-0.8-2.2-1-3.8c-1.9-13.2-1.7-33.5,0.5-46.4c0.7-2.2,1.2-3.6,1.5-4.4c1.7,0.1,4.3,0.1,8.7,0.1&#10;&#9;&#9;&#9;&#9;&#9;c0,0,0,0,0,0c4.8,0,10.8-0.1,16.8-0.2c19.6-0.1,25.1-0.5,27-0.8c1.2,0.1,1.7,0.7,3.1,4.4c0.2,0.5,0.4,0.9,0.6,1.4l0,0.1&#10;&#9;&#9;&#9;&#9;&#9;c4.2,10.7,9.9,21.3,15.2,30.1c4.9,8.7,10.1,17.1,14.6,22.6c0,0.1,0.5,0.6,0.2,1C672.8,564.7,672.5,565.2,672.1,565.7z" style="fill: rgb(247, 207, 17);"/>
				<path class="st2" d="M786.6,510.7L786.6,510.7c0.2-0.6,0.4-1,0.6-1.5c1.5-3.7,2-4.3,3.1-4.4c1.8,0.3,7.3,0.7,27,0.8&#10;&#9;&#9;&#9;&#9;&#9;c5.9,0.1,11.9,0.2,16.8,0.2c4.4,0,7.1,0,8.7-0.1c0.3,0.8,0.8,2.1,1.5,4.4c2.2,12.9,2.4,33.2,0.5,46.4c-0.3,1.6-0.6,2.8-1,3.8&#10;&#9;&#9;&#9;&#9;&#9;c-0.1,0.3-0.3,0.6-0.4,0.9c-0.1,0.2-0.3,0.5-0.4,0.8c-5,7.7-17,17.4-28.5,24.7c0,0,0,0,0,0c0,0-0.1,0-0.1,0.1&#10;&#9;&#9;&#9;&#9;&#9;c-8.9,5.5-17.4,9.5-22.5,10.2l0,0l0,0c-0.5,0.1-1,0.2-1.5,0.3c-0.5,0.1-1,0.2-1.4,0.2c-0.3,0-0.6,0-1-0.1l-0.4-0.2&#10;&#9;&#9;&#9;&#9;&#9;c-0.2-0.1-0.5-0.2-0.8-0.4c-4.6-3.6-13.3-11.8-28.4-30.3l-0.5-0.6c0,0-0.1-0.1-0.1-0.1c-0.4-0.5-0.7-0.9-1.1-1.4&#10;&#9;&#9;&#9;&#9;&#9;c-0.3-0.3,0.2-0.9,0.2-1c4.5-5.5,9.8-13.9,14.6-22.6C776.7,531.9,782.4,521.3,786.6,510.7z" style="fill: rgb(247, 207, 17);"/>
				<path class="st2" d="M660.3,378.8c0-0.1,0-0.3,0-0.5c0-0.1,0-0.1,0-0.2c0.3-0.6,0.6-1.1,0.8-1.5c0.2-0.2,0.5-0.5,0.8-0.8&#10;&#9;&#9;&#9;&#9;&#9;l0.2-0.2l0.2-0.2c2.7-3.5,13-12.2,51.4-31.2l0,0l0,0c0.5-0.2,0.8-0.4,1.2-0.6c0.3,0.2,0.7,0.3,1.2,0.6&#10;&#9;&#9;&#9;&#9;&#9;c38.4,19,48.7,27.7,51.4,31.2l0.2,0.2l0.2,0.2c0.3,0.3,0.6,0.5,0.8,0.8c0.2,0.4,0.5,0.9,0.8,1.5c0,0.1,0,0.1,0,0.2&#10;&#9;&#9;&#9;&#9;&#9;c0,0.2,0,0.3,0,0.5c0,0,0,0,0,0l0,0c0,0,0,0,0,0c0,0,0,0,0,0c0,0.4-0.2,0.9-0.4,1.4c0,0,0,0.1,0,0.1c0,0,0,0.1-0.1,0.2&#10;&#9;&#9;&#9;&#9;&#9;c-0.1,0.2-0.2,0.4-0.3,0.7c-0.2,0.6-0.5,1.2-0.7,1.9c0,0.1-0.1,0.2-0.1,0.4c-0.1,0.4-0.3,0.8-0.4,1.2&#10;&#9;&#9;&#9;&#9;&#9;c-3.6,9.8-13.6,37.2-17.7,46.8c0,0,0,0,0,0l-0.2,0.2l-0.2,0.3c-0.3,0.7-0.6,1.3-0.8,1.9c-0.1,0.3-0.2,0.6-0.3,0.8&#10;&#9;&#9;&#9;&#9;&#9;c0,0-0.1,0-0.2,0c-0.1,0-0.1,0-0.2,0c-0.1,0-0.2,0-0.3,0l-0.5-0.1c-23.8-0.5-30.2-0.5-32.2-0.4c0,0,0,0,0,0l0,0c0,0,0,0,0,0&#10;&#9;&#9;&#9;&#9;&#9;c0,0,0,0,0,0v0l0,0c-2-0.1-8.4-0.1-32.2,0.4l-0.5,0.1c-0.1,0-0.2,0-0.3,0c-0.1,0-0.1,0-0.2,0c-0.1,0-0.1,0-0.2,0&#10;&#9;&#9;&#9;&#9;&#9;c-0.1-0.2-0.2-0.6-0.3-0.8c-0.2-0.6-0.5-1.2-0.8-1.9l-0.2-0.3l-0.2-0.2c0,0,0,0,0,0c-4.1-9.5-14.1-37-17.7-46.7&#10;&#9;&#9;&#9;&#9;&#9;c-0.2-0.4-0.3-0.9-0.5-1.2c0-0.1-0.1-0.3-0.1-0.4c-0.2-0.7-0.5-1.3-0.7-1.9c-0.1-0.2-0.2-0.5-0.3-0.7c0-0.1,0-0.1-0.1-0.2&#10;&#9;&#9;&#9;&#9;&#9;c0,0,0-0.1,0-0.1C660.4,379.7,660.3,379.3,660.3,378.8C660.3,378.8,660.3,378.8,660.3,378.8z" style="fill: rgb(247, 207, 17);"/>
				<path class="st2" d="M872.3,436.8c0,0-0.1,0-0.1,0c-0.5,0-1,0-1.4,0c-0.5-4.6-2.1-7.9-3-9.6l-0.1-0.1c-0.2-0.3-0.3-0.7-0.5-1&#10;&#9;&#9;&#9;&#9;&#9;c-3.5-7.3-13.3-26.2-22.5-39c-1.1-1.7-2.2-3.1-3.1-4.1c0,0,0-0.1-0.1-0.1c-4.5-5.8-4.7-6.7-4.3-8.2c0,0,0-0.1,0-0.1&#10;&#9;&#9;&#9;&#9;&#9;c0,0,0-0.1,0-0.1c0.1-0.3,0.2-0.7,0.3-1c0.6-2.5,1-5.1,1.1-7.6c0.2-2.9,0.3-5.9,0.1-9c15.1,15.6,36.9,45.3,44.2,81.2&#10;&#9;&#9;&#9;&#9;&#9;c-1.5-0.3-3.1-0.6-4.5-0.8C876.4,437,874.3,436.8,872.3,436.8z" style="fill: rgb(247, 207, 17);"/>
				<path class="st2" d="M588,382.8c-0.9,1-1.9,2.4-3.1,4.1c-9.2,12.8-18.9,31.7-22.5,39c-0.2,0.4-0.4,0.7-0.5,1l-0.1,0.2&#10;&#9;&#9;&#9;&#9;&#9;c-0.9,1.8-2.4,5.1-3,9.6c-0.4,0-0.9,0-1.4,0c0,0-0.1,0-0.1,0c-2,0-4.1,0.2-6.1,0.5c-1.5,0.2-3,0.5-4.6,0.8&#10;&#9;&#9;&#9;&#9;&#9;c7.3-36,29.1-65.7,44.2-81.2c-0.2,3.1-0.2,6.1,0.1,9c0.2,2.5,0.5,5.1,1.1,7.6c0.1,0.4,0.2,0.7,0.3,1c0,0,0,0,0,0.1&#10;&#9;&#9;&#9;&#9;&#9;c0,0,0,0.1,0,0.1C592.8,376.1,592.6,376.9,588,382.8C588,382.8,588,382.8,588,382.8z" style="fill: rgb(247, 207, 17);"/>
				<path class="st3" d="M757.9,311.2c1.7,0,3.2,0,4.7,0c13.3,0,48.3,18.8,48.3,18.8s-0.4,1.2-0.5,3.7c7.2,4.6,14.1,9.8,20.4,15.6&#10;&#9;&#9;&#9;&#9;&#9;c0.5,2.4,1.7,9,1.2,16c-0.2,2.9-0.7,5.5-1.2,7.5c-0.1,0.4-0.3,0.9-0.4,1.3c-2.6-0.6-6-1.2-10-1.6c-6.9-0.9-14.9-1.4-22.4-1.4&#10;&#9;&#9;&#9;&#9;&#9;c-1.1,0-2.1,0-3.1,0c-11.5,0-17.4,1-20.5,2c0-0.1-0.1-0.1-0.2-0.2c-0.7-1.1-1.4-2-2.4-2.7c-6.5-7.1-24.2-17.8-52.7-31.9&#10;&#9;&#9;&#9;&#9;&#9;c-0.3-0.1-0.6-0.3-0.8-0.4v-32.2C730,305.7,743.7,307.5,757.9,311.2z" style="fill: rgb(0, 175, 225);"/>
				<path class="st3" d="M754.2,438c0.1-0.3,0.2-0.6,0.3-0.9c0.4-0.7,0.9-1.8,1.4-3.2c4.1-8.4,15.2-39.7,17.9-47.2&#10;&#9;&#9;&#9;&#9;&#9;c0.8-2.2,1.3-3.6,1.4-3.9c0.5-1.4,0.8-2.2,0.8-3c5.3-1.5,15.5-2.1,26-1.8c6.1,0.2,11.8,0.6,16.5,1.1c4.7,0.6,9,1.3,12.2,2.3&#10;&#9;&#9;&#9;&#9;&#9;c1.6,1.1,3.5,3.1,5.5,5.7c0,0,0,0,0,0l0,0.1c1.3,1.7,2.7,3.6,4.1,5.6c6.9,10.4,17.3,29.6,21.2,37.3l0,0.1c0,0.1,0.1,0.2,0.1,0.3&#10;&#9;&#9;&#9;&#9;&#9;c0.2,0.4,0.3,0.7,0.4,1c1.3,3.1,1.8,5.6,1.9,7.7c0,0.4,0,0.7,0,1.1c0,1.3-0.2,2.4-0.3,3.5c-1.5,10.8-4.3,20.4-7.4,28.5&#10;&#9;&#9;&#9;&#9;&#9;c-3.2,8-7.1,15.6-10.5,21.4c-1.4,2.3-2.6,4-3.4,5.1c-2.8,0.1-9.1,0.1-17,0.1c-2.9,0-5.7,0-8.3,0c-10.9-0.2-21.7-0.5-25-0.7&#10;&#9;&#9;&#9;&#9;&#9;c-0.3,0-0.6,0-0.9-0.1l-0.1-0.1l-0.4,0c-1.7-0.2-2.6-0.5-2.9-0.6c0-0.1-0.1-0.3-0.1-0.4c-0.8-3.5-6.1-13.7-15.8-30.2&#10;&#9;&#9;&#9;&#9;&#9;c-0.9-1.5-1.9-3.2-2.9-4.9c-6.3-10.7-12.2-20.4-14.5-22.9c-0.2-0.2-0.3-0.4-0.5-0.6C754.1,438.2,754.2,438.1,754.2,438z" style="fill: rgb(0, 175, 225);"/>
				<path class="st3" d="M848.7,501.7c3.1-4.4,9.6-14.7,14.9-29.3c3.8-9.9,6.7-20.2,7.3-28.9c0.3,0,0.7,0,1,0c1.8,0,4.2,0.2,6.8,0.6&#10;&#9;&#9;&#9;&#9;&#9;c2.2,0.4,4.2,0.9,5.6,1.2c1.9,9.8,2.7,19.3,2.8,28.5c1.6,0.3,2.4,0,2.4,0l-0.7,13.7l-3.9,31.3l-18,41.4c0,0-0.8,0.2-2.4,0.2&#10;&#9;&#9;&#9;&#9;&#9;c-0.2,0.4-0.5,0.7-0.7,1.1c-0.1,0-0.3,0.1-0.5,0.1c-1.4,0.2-3.1,0.3-5.2,0.3c-1,0-1.9,0-2.9-0.1c-0.1,0-0.2,0-0.4,0&#10;&#9;&#9;&#9;&#9;&#9;c0,0-0.1,0-0.1,0c-1.4-0.1-2.8-0.4-4.2-0.6c0.3-1,0.6-2.2,0.9-3.8c0,0,0,0,0-0.1c0-0.1,0-0.3,0.1-0.4c1.7-9.6,2.2-35.8-0.6-48.3&#10;&#9;&#9;&#9;&#9;&#9;c0,0,0,0,0,0l0-0.1c-0.2-0.9-0.4-1.7-0.7-2.5l-0.2-0.6c-0.4-1.2-0.8-2.4-1.4-3.5C848.6,501.9,848.7,501.8,848.7,501.7z" style="fill: rgb(0, 175, 225);"/>
				<path class="st3" d="M765,634c10.7-8.9,21.8-23.3,22-23.5c0.5-0.7,1-1.4,1.4-2.2l0,0c0,0,0-0.1,0.1-0.1c0,0,0.1-0.1,0.1-0.1&#10;&#9;&#9;&#9;&#9;&#9;c0.4-0.8,0.8-1.6,1-2.4c0,0,0,0,0-0.1c0-0.1,0-0.1,0.1-0.2c0.1-0.5,0.3-0.9,0.4-1.4c0.9-0.1,1.6-0.3,2.3-0.4&#10;&#9;&#9;&#9;&#9;&#9;c0.1,0,0.3-0.1,0.4-0.1c7.6-0.8,20.3-7.5,32-15.7c8.4-5.8,16.3-12.6,21.7-19.2l0.2-0.3l0.2-0.3c0-0.1,0.2-0.3,0.4-0.5&#10;&#9;&#9;&#9;&#9;&#9;c2,0.5,4.1,0.8,6.3,1.1c1.8,0.2,3.7,0.3,5.4,0.3h0c0.1,0,0.1,0,0.2,0c-1.1,1.7-2.3,3.4-3.5,5l3.8,0.6l-10.4,13.3l-19,19&#10;&#9;&#9;&#9;&#9;&#9;l-38.7,25.8c0,0-3.3-0.1-7.6-0.2c-6,2.6-11.8,4.6-17.1,5.9c-1.1,0.2-2.1,0.3-3.1,0.3c-1.5,0-2.7-0.2-3.7-0.5&#10;&#9;&#9;&#9;&#9;&#9;C761.3,637,763.1,635.6,765,634z" style="fill: rgb(0, 175, 225);"/>
				<path class="st3" d="M598.9,349.2c6.3-5.8,13.1-11,20.4-15.6c-0.2-2.5-0.5-3.7-0.5-3.7s35-18.8,48.3-18.8c1.4,0,3,0,4.7,0&#10;&#9;&#9;&#9;&#9;&#9;c14.3-3.7,28-5.5,39.7-5.6v32.2c-0.2,0.1-0.5,0.2-0.8,0.4C682.2,352.3,664.5,363,658,370c-1,0.8-1.8,1.7-2.4,2.7&#10;&#9;&#9;&#9;&#9;&#9;c0,0.1-0.1,0.1-0.2,0.2c-3.2-1-9.1-2-20.5-2c-1,0-2,0-3.1,0c-7.6,0-15.6,0.5-22.5,1.4c-3.9,0.5-7.4,1-10,1.6&#10;&#9;&#9;&#9;&#9;&#9;c-0.1-0.4-0.3-0.9-0.4-1.3c-0.6-2-1-4.6-1.2-7.5C597.3,358.3,598.4,351.6,598.9,349.2z" style="fill: rgb(0, 175, 225);"/>
				<path class="st3" d="M565.5,439.2c0.1-2.1,0.6-4.6,1.9-7.8c0.1-0.3,0.3-0.7,0.5-1c0-0.1,0.1-0.2,0.1-0.3l0.1-0.1&#10;&#9;&#9;&#9;&#9;&#9;c3.8-7.7,14.3-26.9,21.2-37.3c1.4-2,2.8-3.9,4.1-5.6l0.1-0.1c0,0,0,0,0-0.1c2-2.6,3.9-4.6,5.5-5.7c3.2-0.9,7.5-1.7,12.2-2.3&#10;&#9;&#9;&#9;&#9;&#9;c4.7-0.5,10.4-0.9,16.5-1.1c10.5-0.3,20.7,0.3,26,1.8c0.1,0.8,0.3,1.6,0.8,3c0.1,0.4,0.7,1.8,1.4,3.9&#10;&#9;&#9;&#9;&#9;&#9;c2.6,7.5,13.7,38.7,17.9,47.2c0.6,1.4,1.1,2.5,1.5,3.2c0.1,0.3,0.2,0.6,0.3,0.9c0,0.1,0.1,0.3,0.2,0.4c-0.2,0.2-0.3,0.4-0.5,0.6&#10;&#9;&#9;&#9;&#9;&#9;c-2.3,2.5-8.3,12.2-14.5,22.9c-1,1.7-2,3.4-2.9,4.9c-9.7,16.5-15,26.7-15.8,30.2c0,0.1-0.1,0.3-0.1,0.4&#10;&#9;&#9;&#9;&#9;&#9;c-0.3,0.1-1.2,0.4-2.9,0.6l-0.4,0l-0.1,0.1c-0.3,0-0.6,0-0.9,0.1c-3.2,0.2-14.1,0.5-25,0.7c-2.6,0-5.3,0-8.2,0&#10;&#9;&#9;&#9;&#9;&#9;c-7.9,0-14.1-0.1-17-0.1c-0.7-1-1.9-2.7-3.3-5c-3.5-5.8-7.4-13.5-10.6-21.6c-3.1-8.1-5.9-17.6-7.3-28.3&#10;&#9;&#9;&#9;&#9;&#9;c-0.2-1.1-0.3-2.3-0.3-3.6C565.5,439.8,565.5,439.5,565.5,439.2z" style="fill: rgb(0, 175, 225);"/>
				<path class="st3" d="M542.6,473.9c0.1-9.2,0.9-18.7,2.8-28.5c1.4-0.4,3.3-0.8,5.6-1.2c2.6-0.4,5-0.6,6.8-0.6c0.4,0,0.7,0,1,0&#10;&#9;&#9;&#9;&#9;&#9;c0.6,8.6,3.4,18.8,7.2,28.6c5.3,14.8,11.9,25.1,15,29.5c0.1,0.1,0.1,0.2,0.2,0.2c-0.6,1.1-1,2.3-1.4,3.5l-0.2,0.5&#10;&#9;&#9;&#9;&#9;&#9;c-0.2,0.7-0.4,1.4-0.6,2.2c0,0,0,0,0,0l0,0c0,0,0,0.1,0,0.1l-0.1,0.3c0,0,0,0,0,0.1c-2.8,12.6-2.2,38.7-0.6,48.3&#10;&#9;&#9;&#9;&#9;&#9;c0,0.1,0,0.2,0.1,0.4c0,0,0,0,0,0.1c0.2,1.6,0.5,2.8,0.9,3.8c-1.4,0.3-2.8,0.5-4.2,0.6c0,0-0.1,0-0.1,0c-0.1,0-0.2,0-0.4,0&#10;&#9;&#9;&#9;&#9;&#9;c-0.9,0.1-1.9,0.1-2.9,0.1c-2.1,0-3.8-0.1-5.2-0.3c-0.2,0-0.3-0.1-0.5-0.1c-0.2-0.3-0.5-0.7-0.7-1.1c-1.6,0-2.4-0.2-2.4-0.2&#10;&#9;&#9;&#9;&#9;&#9;l-18-41.4l-3.9-31.3l-0.7-13.7C540.2,473.9,541,474.2,542.6,473.9z" style="fill: rgb(0, 175, 225);"/>
				<path class="st3" d="M646.6,602.5l0.3-0.2c0.1-0.1,0.2-0.1,0.3-0.2c8.2-5.6,24.5-25.2,30.1-32.1c1.6-1.9,3.2-2.1,3.8-1.9&#10;&#9;&#9;&#9;&#9;&#9;l0.3,0.1c5.5,1.1,32,3.2,33.2,3.3h0.5c1.1-0.1,27.6-2.2,33.2-3.3l0.3-0.1c0.6-0.2,2.3,0,3.8,1.9c5.6,6.9,22,26.7,30.2,32.1&#10;&#9;&#9;&#9;&#9;&#9;c0.1,0,0.1,0.1,0.2,0.1l0.3,0.2l0.3,0.2c0,0.3-0.1,0.5-0.2,0.8c-0.2,0.5-0.4,1-0.7,1.6c-1.5,2.2-12.7,15.6-20.9,23&#10;&#9;&#9;&#9;&#9;&#9;c-2,1.7-3.9,3.2-5.6,4.3c0,0-0.1,0-0.1,0.1l-0.1,0c-0.9,0.5-1.7,0.9-2.2,1.2c-0.5,0.2-0.9,0.4-1.3,0.4l-4.2,1.6&#10;&#9;&#9;&#9;&#9;&#9;c-16.2,4.2-25.2,4.9-31.3,5l-1.9,0l-1.9,0c-6.1-0.1-15.1-0.8-31.3-5l-4.2-1.6c-0.4-0.1-0.9-0.2-1.3-0.4&#10;&#9;&#9;&#9;&#9;&#9;c-0.5-0.2-1.2-0.6-2.2-1.2l-0.1,0c0,0-0.1-0.1-0.1-0.1c-1.7-1.1-3.6-2.5-5.6-4.2c-8.3-7.4-19.4-20.8-21-23&#10;&#9;&#9;&#9;&#9;&#9;c-0.3-0.6-0.6-1.1-0.7-1.6c-0.1-0.3-0.2-0.6-0.2-0.8L646.6,602.5z" style="fill: rgb(0, 175, 225);"/>
				<path class="st3" d="M574.2,573.9c-1.2-1.7-2.4-3.3-3.5-5c0.1,0,0.1,0,0.2,0c1.7,0,3.6-0.1,5.4-0.3c2.2-0.2,4.3-0.5,6.3-1.1&#10;&#9;&#9;&#9;&#9;&#9;c0.2,0.2,0.3,0.4,0.4,0.5l0.2,0.3l0.2,0.3c5.3,6.6,13.3,13.4,21.7,19.2c11.7,8.2,24.4,14.9,32,15.7c0.1,0,0.3,0.1,0.4,0.1&#10;&#9;&#9;&#9;&#9;&#9;c0.6,0.2,1.4,0.3,2.3,0.4c0.1,0.5,0.2,0.9,0.4,1.4c0,0.1,0,0.2,0.1,0.2c0,0,0,0,0,0.1c0.2,0.8,0.6,1.6,1,2.4c0,0,0,0.1,0.1,0.1&#10;&#9;&#9;&#9;&#9;&#9;c0,0,0,0.1,0.1,0.1l0,0c0.4,0.7,0.9,1.5,1.4,2.2c0.2,0.2,11.3,14.6,22,23.5c1.9,1.7,3.8,3,5.3,4c-1,0.3-2.2,0.5-3.7,0.5h0&#10;&#9;&#9;&#9;&#9;&#9;c-1,0-2-0.1-3.1-0.3c-5.3-1.3-11.1-3.3-17.1-5.9c-4.3,0.1-7.6,0.2-7.6,0.2l-38.7-25.8l-19-19l-10.4-13.3L574.2,573.9z" style="fill: rgb(0, 175, 225);"/>
				<path d="M 714.7999877929688 341.3999938964844 L 714.9000244140625 341.3999938964844 L 714.7999877929688 341.6000061035156 Z" class="st4" style="fill: rgb(230, 231, 232);"/>
				<path class="st5" d="M558.9,566.8l0.5,0.7c26.8,43.9,71.6,71.9,101.9,79.2l0.3,0.1c0.9,0.2,1.8,0.3,2.7,0.3&#10;&#9;&#9;&#9;&#9;&#9;c3.5,0.9,27.4,6.8,46,6.8c0.9,0,1.9,0,2.8,0l1.7-0.1l1.7,0.1c0.9,0,1.8,0,2.8,0c18.7,0,42.6-5.9,46-6.8c0.9-0.1,1.8-0.2,2.6-0.3&#10;&#9;&#9;&#9;&#9;&#9;l0.3-0.1c30.3-7.4,75.1-35.3,102-79.2l0.5-0.7c9.5-13.9,33.9-66.6,21.8-125.2c-7.6-46.9-39.4-84.8-55.2-98.2&#10;&#9;&#9;&#9;&#9;&#9;c-34.2-32.2-85-46.6-120.2-46.6c-0.8,0-1.6,0-2.5,0c-0.7,0-1.5,0-2.4,0c-35.1,0-85.9,14.4-120.2,46.7&#10;&#9;&#9;&#9;&#9;&#9;c-15.7,13.4-47.5,51.2-55.1,98.2C525,500.3,549.4,552.9,558.9,566.8z M836.4,387.1l-1.6,1.3c1.2,1.6,2.6,3.4,4,5.5&#10;&#9;&#9;&#9;&#9;&#9;c6.8,10.4,17.4,29.6,21.1,37.1l0.2,0.3c0.1,0.3,0.3,0.6,0.4,0.9c1.1,2.6,1.6,4.9,1.7,7.1c0,0.3,0,0.6,0,1c0,1.2-0.2,2.3-0.3,3.2&#10;&#9;&#9;&#9;&#9;&#9;c-1.3,9.5-3.8,18.9-7.3,28.1c-3.1,7.6-6.8,15.1-10.4,21.1c-1.1,1.7-2,3.1-2.7,4.1c-2.9,0.1-8.3,0.1-15.9,0.1c-2.9,0-5.7,0-8.2,0&#10;&#9;&#9;&#9;&#9;&#9;c-11-0.2-21.7-0.5-24.8-0.7c-0.2,0-0.4,0-0.6,0l-0.2-0.1l-0.7,0c-0.6-0.1-1-0.1-1.4-0.2c-1.3-4.3-6.5-14.2-15.8-30&#10;&#9;&#9;&#9;&#9;&#9;c-0.9-1.5-1.9-3.2-2.9-4.9c-3.3-5.7-11.2-19-14.5-22.9c0,0,0,0,0-0.1c0.4-0.7,0.8-1.8,1.4-3.2c4.6-9.4,17.4-45.8,17.9-47.4&#10;&#9;&#9;&#9;&#9;&#9;c0.8-2.1,1.3-3.5,1.4-3.9c0.3-0.8,0.6-1.5,0.7-2.1c4.2-1,11.2-1.5,19.4-1.5c1.6,0,3.2,0,4.8,0.1c5.6,0.2,11.2,0.6,16.3,1.1&#10;&#9;&#9;&#9;&#9;&#9;c4.6,0.5,8.6,1.3,11.5,2.1c1.3,1,2.9,2.7,4.8,5.1L836.4,387.1L836.4,387.1z M758.6,461.5c9.1,15.4,19.4,34.1,20.4,37.1l0.1,0.4&#10;&#9;&#9;&#9;&#9;&#9;c0,0.1,0.1,0.1,0.1,0.2l0,0l0.2,0.5c0.4,1.2,0.5,2.8,0.4,3.9c-0.4,1.2-0.9,2.4-1.4,3.7c-3,6.7-8.7,18.4-14.9,29.4&#10;&#9;&#9;&#9;&#9;&#9;c-4.5,7.5-8.7,13.6-11.2,17.3c-1,1.4-1.6,2.4-2,3c-0.4,0.7-2,1.8-4.4,2.7c-1.9,0.2-9.1,0.9-14.9,1.4c-10.6,1-14.7,1.4-16.3,1.6&#10;&#9;&#9;&#9;&#9;&#9;c-1.6-0.2-5.6-0.6-16.3-1.6c-5.8-0.5-12.9-1.2-14.9-1.4c-2.4-0.9-4-2-4.4-2.7c-0.4-0.6-1-1.5-2-3c-2.5-3.7-6.7-9.8-11.2-17.4&#10;&#9;&#9;&#9;&#9;&#9;c-6.1-10.9-11.9-22.6-14.9-29.4c-0.5-1.2-0.9-2.4-1.3-3.6c-0.1-1.1,0-2.8,0.4-4l0.2-0.5c0,0,0-0.1,0-0.1l0.2-0.4&#10;&#9;&#9;&#9;&#9;&#9;c1-3.1,11.4-21.8,20.5-37.2c5.6-9.2,9.9-15.9,11.3-17.4c0.2-0.2,0.3-0.4,0.4-0.5c3.8-0.1,20.9-0.3,32-0.5&#10;&#9;&#9;&#9;&#9;&#9;c11.1,0.1,28.2,0.4,32,0.5c0.1,0.1,0.2,0.2,0.5,0.5C748.7,445.5,753,452.2,758.6,461.5z M587.4,510.5c0.3-1.2,0.6-2.1,0.9-2.7&#10;&#9;&#9;&#9;&#9;&#9;c1.7,0.1,4.1,0.1,7.3,0.1c4.6,0,10.4-0.1,16.8-0.2c14.7-0.1,23.5-0.3,26.8-0.8c0.2,0.3,0.6,1.1,1.4,3c0.2,0.5,0.4,1,0.6,1.4&#10;&#9;&#9;&#9;&#9;&#9;l0,0.1c3.5,9.1,8.7,19.3,15.4,30.4c5.4,9.7,10.2,17.1,14.3,22.2l-0.9,1.2c-14.8,18.1-23.3,26.2-27.9,29.8&#10;&#9;&#9;&#9;&#9;&#9;c-0.2,0.1-0.4,0.2-0.6,0.2l-0.2,0.1c-0.1,0-0.2,0-0.2,0c-0.3,0-0.8-0.1-1.1-0.2c-0.5-0.1-1.1-0.2-1.6-0.3&#10;&#9;&#9;&#9;&#9;&#9;c-4.6-0.6-12.9-4.4-21.7-9.9l-0.1-0.1c-12.5-7.9-23.5-17.3-27.9-24l-0.3-0.7c-0.2-0.3-0.3-0.6-0.4-0.8c-0.4-0.9-0.7-2-0.9-3.3&#10;&#9;&#9;&#9;&#9;&#9;C585.1,543.2,585.3,523.2,587.4,510.5z M814.2,586.6l-1.1-1.7c-8.9,5.5-17.2,9.3-21.7,9.9l-0.1,0c-0.5,0.1-1,0.2-1.5,0.3&#10;&#9;&#9;&#9;&#9;&#9;c-0.4,0.1-0.7,0.2-1,0.2c-0.1,0-0.2,0-0.3,0l-0.3-0.1c-0.1,0-0.3-0.1-0.5-0.2c-4.5-3.6-13-11.7-27.9-29.8l-0.9-1.1&#10;&#9;&#9;&#9;&#9;&#9;c4-5,8.8-12.5,14.3-22.2c6.6-11,11.8-21.2,15.3-30.4c0.2-0.5,0.4-1,0.6-1.5c0.7-1.9,1.1-2.7,1.4-3c3.3,0.5,12.1,0.7,26.8,0.8&#10;&#9;&#9;&#9;&#9;&#9;c6.4,0.1,12.2,0.2,16.8,0.2c3.3,0,5.6,0,7.3-0.1c0.2,0.7,0.5,1.6,0.9,2.7c2.1,12.7,2.3,32.7,0.4,45.7c-0.2,1.2-0.5,2.3-0.9,3.2&#10;&#9;&#9;&#9;&#9;&#9;c-0.1,0.2-0.2,0.5-0.4,0.8l-0.3,0.7c-4.4,6.7-15.3,16.1-27.9,24L814.2,586.6L814.2,586.6z M681.8,434.7L681.8,434.7L681.8,434.7&#10;&#9;&#9;&#9;&#9;&#9;L681.8,434.7z M549.3,435.5c8-35.1,29.1-61.9,39.4-73.4c0,1.3,0.1,2.6,0.2,3.9c0.2,2.8,0.6,5.4,1.2,7.9c0.1,0.4,0.2,0.7,0.3,1.1&#10;&#9;&#9;&#9;&#9;&#9;l0,0.2c0.1,0.5,0.2,1-4,6.4c-0.9,1-2,2.4-3.2,4.3c-10.7,14.9-21.4,36.8-22.6,39.3l-0.6,1.2c-0.8,1.6-2.2,4.5-2.9,8.5&#10;&#9;&#9;&#9;&#9;&#9;c-1.8,0-3.9,0.2-6.1,0.5C550.4,435.3,549.9,435.4,549.3,435.5z M569.8,430.8c3.7-7.4,14.2-26.6,21-37c1.4-2.1,2.8-3.9,4-5.5&#10;&#9;&#9;&#9;&#9;&#9;l0.1-0.2c1.9-2.3,3.5-4,4.8-5c2.9-0.8,6.9-1.6,11.5-2.1c5.1-0.6,10.7-0.9,16.3-1.1c1.6,0,3.2-0.1,4.7-0.1&#10;&#9;&#9;&#9;&#9;&#9;c8.2,0,15.2,0.5,19.4,1.5c0.2,0.6,0.4,1.3,0.7,2.1c0.1,0.4,0.6,1.7,1.4,3.8l0.1,0.1c0.5,1.5,13.3,37.9,17.9,47.3&#10;&#9;&#9;&#9;&#9;&#9;c0.6,1.4,1.1,2.4,1.4,3.2c0,0,0,0,0,0.1c-3.2,3.8-11.1,17.2-14.5,22.9c-1,1.7-2,3.4-2.9,4.9c-9.3,15.9-14.5,25.7-15.8,30&#10;&#9;&#9;&#9;&#9;&#9;c-0.3,0.1-0.8,0.1-1.4,0.2l-0.7,0l-0.2,0.1c-0.2,0-0.4,0-0.6,0c-3.1,0.2-13.8,0.5-24.9,0.7c-2.5,0-5.3,0-8.2,0&#10;&#9;&#9;&#9;&#9;&#9;c-7.6,0-13.1-0.1-15.9-0.1c-0.7-1-1.6-2.4-2.7-4.1c-3.7-6-7.4-13.6-10.5-21.3c-3.5-9.1-5.9-18.5-7.2-27.8&#10;&#9;&#9;&#9;&#9;&#9;c-0.1-1-0.3-2.1-0.3-3.4c0-0.3,0-0.6,0-0.9c0.1-2.2,0.7-4.5,1.7-7.1c0.1-0.3,0.3-0.6,0.4-1L569.8,430.8z M600.8,350.3&#10;&#9;&#9;&#9;&#9;&#9;c31.1-28.5,76.4-41.8,108.6-42.6v28.8c-28.3,14.1-46.1,24.8-52.8,32c-0.7,0.6-1.4,1.3-2,2.1c-4.4-1.1-11-1.7-19.7-1.7&#10;&#9;&#9;&#9;&#9;&#9;c-1,0-2.1,0-3.1,0c-7.7,0-15.7,0.5-22.7,1.4c-3.2,0.4-6,0.8-8.3,1.2c-0.5-1.8-0.8-4.1-1-6.6&#10;&#9;&#9;&#9;&#9;&#9;C599.3,358.9,600.2,353.1,600.8,350.3z M663.3,377.3l0.6-0.6c2.1-2.7,11.2-11.1,50.7-30.6l0.3-0.1l0.3,0.1&#10;&#9;&#9;&#9;&#9;&#9;c39.5,19.6,48.6,28,50.7,30.6l0.6,0.6c0.2,0.2,0.4,0.3,0.5,0.5c0.2,0.3,0.3,0.5,0.5,0.9v0c0,0.2-0.1,0.5-0.2,0.8l-0.4,0.9&#10;&#9;&#9;&#9;&#9;&#9;c-0.3,0.6-0.5,1.3-0.8,2.1l-0.5,1.5c-3.7,10.1-13.4,36.7-17.5,46.4l-0.1,0.2l-0.3,0.6c-0.3,0.5-0.5,1-0.7,1.5&#10;&#9;&#9;&#9;&#9;&#9;c-14.2-0.3-23.4-0.5-28.4-0.5c-1.7,0-2.8,0-3.6,0.1l-2.1-0.1v0.1c-0.5,0-1.1,0-1.7,0c-4.9,0-14.2,0.2-28.4,0.5&#10;&#9;&#9;&#9;&#9;&#9;c-0.2-0.5-0.4-1-0.7-1.5l-0.4-0.7c-4.1-9.8-14.2-37.3-17.5-46.4l-0.5-1.5c-0.2-0.8-0.5-1.5-0.8-2.1c-0.1-0.2-0.2-0.5-0.3-0.7&#10;&#9;&#9;&#9;&#9;&#9;l-0.1-0.3c-0.1-0.4-0.2-0.6-0.2-0.8v0c0.2-0.3,0.3-0.6,0.5-0.9C662.9,377.7,663.1,377.5,663.3,377.3z M720.2,307.7&#10;&#9;&#9;&#9;&#9;&#9;c32.2,0.8,77.6,14.1,108.6,42.6c0.5,2.8,1.4,8.6,1,14.8c-0.2,2.5-0.5,4.7-1,6.5c-2.3-0.5-5.1-0.9-8.3-1.2&#10;&#9;&#9;&#9;&#9;&#9;c-6.9-0.9-15-1.4-22.7-1.4c-1,0-2.1,0-3.1,0c-8.7,0-15.3,0.6-19.7,1.7c-0.6-0.8-1.3-1.5-2-2.1c-6.7-7.2-24.5-18-52.8-32V307.7z&#10;&#9;&#9;&#9;&#9;&#9; M839.2,375l0-0.2c0.1-0.3,0.2-0.7,0.3-1c0.6-2.4,1-5.1,1.2-7.9c0.1-1.3,0.2-2.6,0.2-3.9c10.4,11.5,31.4,38.3,39.4,73.4&#10;&#9;&#9;&#9;&#9;&#9;c-0.5-0.1-1.1-0.2-1.6-0.2c-2.2-0.3-4.3-0.5-6.2-0.5c-0.7-3.9-2.1-6.8-2.9-8.5l-0.1-0.1c-0.2-0.3-0.4-0.7-0.5-1.1&#10;&#9;&#9;&#9;&#9;&#9;c-1.2-2.4-11.9-24.3-22.7-39.3c-1.2-1.8-2.3-3.2-3.2-4.2C839.1,376.2,839.1,375.6,839.2,375z M882.6,447&#10;&#9;&#9;&#9;&#9;&#9;c9.6,52.6-10.8,98.4-20.1,112.7c-2.4,0.3-4.8,0.3-7.2,0.1l-0.3,0l-0.3,2l0.2-2c-0.6-0.1-1.2-0.1-1.9-0.2&#10;&#9;&#9;&#9;&#9;&#9;c0.1-0.6,0.2-1.2,0.3-1.9l0.1-0.4c1.8-10.3,2.2-36.4-0.6-49l0-0.2c-0.2-1-0.5-1.9-0.7-2.6l-0.2-0.6c-0.3-0.8-0.6-1.8-1-2.7&#10;&#9;&#9;&#9;&#9;&#9;c3.5-5.1,9.6-15.1,14.7-29.1c2.8-7.3,6.3-17.8,7.3-27.5c1.6,0.1,3.6,0.3,5.6,0.6C880,446.4,881.4,446.8,882.6,447z M855.3,570.7&#10;&#9;&#9;&#9;&#9;&#9;c-25.5,36.2-63.8,59.2-89.2,65.5c-0.2,0-0.4,0.1-0.6,0.1c0.3-0.3,0.6-0.5,0.9-0.8c10.9-9.1,22.1-23.7,22.2-23.8&#10;&#9;&#9;&#9;&#9;&#9;c0.1-0.2,0.2-0.3,0.3-0.5l0.1,0l0.6-1c0.2-0.3,0.3-0.6,0.5-0.8l0.2-0.4c0.5-0.8,0.9-1.7,1.2-2.7l0.1-0.3c0-0.1,0-0.1,0.1-0.2&#10;&#9;&#9;&#9;&#9;&#9;c0.4-0.1,0.8-0.2,1.1-0.3l0.3-0.1c8.9-1,22.8-8.9,32.8-16c9.2-6.4,17-13.3,22.1-19.6l0.1-0.1c1.7,0.3,3.4,0.6,5.3,0.8&#10;&#9;&#9;&#9;&#9;&#9;C853.9,570.6,854.6,570.7,855.3,570.7z M752.7,631.7c-0.3,0.1-0.6,0.2-0.9,0.3l-0.3,0.1l-4.1,1.5c-16,4.2-24.8,4.8-30.7,4.9&#10;&#9;&#9;&#9;&#9;&#9;l-1.9,0l-1.8,0c-5.9-0.1-14.7-0.7-30.7-4.9l-4.4-1.6c-0.3-0.1-0.6-0.2-1-0.3c-0.4-0.2-1.1-0.6-2-1.1l-0.1-0.1l-1.1,1.7l0,0&#10;&#9;&#9;&#9;&#9;&#9;l0.9-1.8c-1.4-0.9-3.2-2.3-5.2-4c-8-7.2-18.9-20.2-20.6-22.6c-0.1-0.2-0.2-0.3-0.2-0.5c8.4-5.9,23.9-24.5,30.2-32.2&#10;&#9;&#9;&#9;&#9;&#9;c0.9-1.1,1.7-1.2,1.8-1.2l0.2,0.1c5.7,1.1,32.3,3.3,33.5,3.4l0.8,0l0.1,0c1.1-0.1,27.7-2.2,33.4-3.4l0.3-0.1&#10;&#9;&#9;&#9;&#9;&#9;c0.1,0,0.9,0.1,1.8,1.2c6.3,7.8,21.8,26.3,30.2,32.2c-0.1,0.1-0.1,0.3-0.2,0.4c-1.7,2.4-12.6,15.4-20.6,22.6&#10;&#9;&#9;&#9;&#9;&#9;c-2,1.7-3.8,3.1-5.3,4l-0.2,0.1C753.9,631.2,753.2,631.5,752.7,631.7z M664.2,636.3c-0.2,0-0.4-0.1-0.6-0.1&#10;&#9;&#9;&#9;&#9;&#9;c-25.5-6.2-63.7-29.3-89.2-65.5c0.7-0.1,1.3-0.1,2-0.2c1.8-0.2,3.6-0.4,5.2-0.8l0.1,0.1c5.1,6.2,12.9,13.2,22.1,19.6&#10;&#9;&#9;&#9;&#9;&#9;c10,7.1,23.9,15,32.8,16l0.2,0.1c0.4,0.1,0.8,0.2,1.2,0.3c0,0.1,0,0.1,0.1,0.2l0.1,0.4c0.3,0.9,0.7,1.8,1.2,2.7l0.2,0.4&#10;&#9;&#9;&#9;&#9;&#9;c0.2,0.3,0.3,0.6,0.5,0.9l0.5,0.8l0,0c0.2,0.2,0.3,0.4,0.5,0.6c0.1,0.1,11.4,14.8,22.3,23.9C663.7,635.8,664,636.1,664.2,636.3z&#10;&#9;&#9;&#9;&#9;&#9; M574.3,559.9c-2.3,0.2-4.8,0.1-7.1-0.1c-9.3-14.3-29.8-60.1-20.1-112.7c1.1-0.3,2.6-0.6,4.1-0.9c2-0.3,4-0.5,5.6-0.6&#10;&#9;&#9;&#9;&#9;&#9;c1,9.7,4.4,20.1,7.2,27.4c5.1,14,11.2,24.1,14.7,29.2c-0.4,0.9-0.7,1.9-1,2.7l-0.2,0.5c-0.2,0.7-0.4,1.5-0.6,2.3l0,0.1l2,0.6&#10;&#9;&#9;&#9;&#9;&#9;l-2-0.5l-0.1,0.4c-2.8,12.6-2.4,38.7-0.6,49l0.1,0.4c0.1,0.7,0.2,1.3,0.3,1.9c-0.6,0.1-1.2,0.2-1.9,0.2L574.3,559.9z" style="fill: rgb(35, 35, 40);"/>
				<path class="st3" d="M648.3,498.9l0.1-0.3l0,0c0.1-0.2,0.1-0.3,0.2-0.4l0.1-0.3c1.1-3.4,11.9-22.8,20.6-37.5&#10;&#9;&#9;&#9;&#9;&#9;c5.3-8.7,10-16,11.5-17.8c0.8-0.8,1.1-1.1,1.4-1.1c2.6-0.1,20.6-0.4,32.6-0.5v0c11.9,0.2,30,0.4,32.6,0.5&#10;&#9;&#9;&#9;&#9;&#9;c0.3,0.1,0.6,0.3,1.4,1.1c1.6,1.8,6.3,9,11.6,17.8c8.7,14.8,19.5,34.1,20.6,37.5l0.1,0.3c0.1,0.1,0.1,0.3,0.2,0.5l0,0.1l0.1,0.3&#10;&#9;&#9;&#9;&#9;&#9;c0.4,1.1,0.6,2.6,0.5,3.8c0,0.4,0,0.8-0.1,1.2c-0.5,1.3-0.9,2.7-1.5,4c-3,6.9-8.8,18.6-15,29.6c-4.6,7.6-8.8,13.8-11.3,17.5&#10;&#9;&#9;&#9;&#9;&#9;c-1,1.4-1.6,2.4-1.9,2.9c-0.8,1.3-2.9,2.6-5.7,3.6c-1.5,0.2-9,0.9-15.1,1.5c-11.5,1.1-15.1,1.4-16.5,1.6&#10;&#9;&#9;&#9;&#9;&#9;c-1.3-0.2-5-0.5-16.5-1.6c-6.1-0.6-13.6-1.3-15.1-1.5c-2.7-1-4.9-2.3-5.7-3.6c-0.3-0.6-1-1.5-1.9-2.9&#10;&#9;&#9;&#9;&#9;&#9;c-2.5-3.6-6.7-9.9-11.3-17.5c-6.2-11-12-22.8-15-29.6c-0.5-1.3-1-2.7-1.5-4C647.6,502.5,647.8,500.5,648.3,498.9z" style="fill: rgb(0, 175, 225);"/>
			</g>
			<g>
				<path class="st5" d="M691.7,318.8c-15.2,3.3-30.1,7.9-44.6,13.7c-3,1.2-4.3-3.7-1.4-4.9c14.4-5.9,29.3-10.4,44.6-13.7&#10;&#9;&#9;&#9;&#9;&#9;C693.5,313.2,694.9,318.1,691.7,318.8L691.7,318.8z" style="fill: rgb(35, 35, 40);"/>
			</g>
			<g>
				<path class="st5" d="M638.3,336.4c-3.9,2.5-7.9,4.9-11.8,7.4c-2.8,1.7-5.3-2.7-2.6-4.4c3.9-2.5,7.9-4.9,11.8-7.4&#10;&#9;&#9;&#9;&#9;&#9;C638.5,330.2,641.1,334.6,638.3,336.4L638.3,336.4z" style="fill: rgb(35, 35, 40);"/>
			</g>
			<g>
				<path class="st5" d="M617.7,349.4c-1.9,1-3.7,2-5.6,3c-2.9,1.6-5.4-2.8-2.6-4.4c1.9-1,3.7-2,5.6-3&#10;&#9;&#9;&#9;&#9;&#9;C618,343.4,620.5,347.8,617.7,349.4L617.7,349.4z" style="fill: rgb(35, 35, 40);"/>
			</g>
			<g>
				<path class="st5" d="M662.7,335.8c-8,4.1-15.9,8.1-23.9,12.2c-2.9,1.5-5.5-2.9-2.6-4.4c8-4.1,15.9-8.1,23.9-12.2&#10;&#9;&#9;&#9;&#9;&#9;C663.1,330,665.7,334.3,662.7,335.8L662.7,335.8z" style="fill: rgb(35, 35, 40);"/>
			</g>
			<g>
				<path class="st5" d="M553.9,472.2c-1.1,13.3,0.5,26.4,4.6,39.1c1,3.1-3.9,4.5-4.9,1.4c-4.3-13.1-5.9-26.7-4.8-40.4&#10;&#9;&#9;&#9;&#9;&#9;C549.1,468.9,554.2,468.9,553.9,472.2L553.9,472.2z" style="fill: rgb(35, 35, 40);"/>
			</g>
			<g>
				<path class="st5" d="M565.4,534c0.7,1.9,1.3,3.7,2,5.6c0.5,1.3-0.5,2.8-1.8,3.1c-1.4,0.4-2.7-0.5-3.1-1.8&#10;&#9;&#9;&#9;&#9;&#9;c-0.7-1.9-1.3-3.7-2-5.6c-0.5-1.3,0.5-2.8,1.8-3.1C563.7,531.9,565,532.7,565.4,534L565.4,534z" style="fill: rgb(35, 35, 40);"/>
			</g>
			<g>
				<path class="st5" d="M565.9,505.6c0.7,2.9,1.4,5.7,2.1,8.6c0.8,3.2-4.1,4.5-4.9,1.4c-0.7-2.9-1.4-5.7-2.1-8.6&#10;&#9;&#9;&#9;&#9;&#9;C560.2,503.8,565.1,502.4,565.9,505.6L565.9,505.6z" style="fill: rgb(35, 35, 40);"/>
			</g>
			<g>
				<path class="st5" d="M605,405.9c-4.7,8.4-9.4,16.8-14.1,25.2c-1.6,2.9-6,0.3-4.4-2.6c4.7-8.4,9.4-16.8,14.1-25.2&#10;&#9;&#9;&#9;&#9;&#9;C602.2,400.5,606.6,403.1,605,405.9L605,405.9z" style="fill: rgb(35, 35, 40);"/>
			</g>
			<g>
				<path class="st5" d="M587.2,422.7c-2.8,4.7-5.6,9.4-8.5,14c-1.7,2.8-6.1,0.2-4.4-2.6c2.8-4.7,5.6-9.4,8.5-14&#10;&#9;&#9;&#9;&#9;&#9;C584.5,417.3,588.9,419.9,587.2,422.7L587.2,422.7z" style="fill: rgb(35, 35, 40);"/>
			</g>
			<g>
				<path class="st5" d="M614.6,389.1c-1.7,2.4-3.4,4.7-5.1,7.1c-0.8,1.1-2.2,1.6-3.5,0.9c-1.1-0.6-1.7-2.4-0.9-3.5&#10;&#9;&#9;&#9;&#9;&#9;c1.7-2.4,3.4-4.7,5.1-7.1c0.8-1.1,2.2-1.6,3.5-0.9C614.8,386.3,615.4,388,614.6,389.1L614.6,389.1z" style="fill: rgb(35, 35, 40);"/>
			</g>
			<g>
				<path class="st5" d="M594.6,531.8c-1.1,7.9-0.9,15.8,0.6,23.6c0.6,3.2-4.3,4.6-4.9,1.4c-1.7-8.8-1.9-17.4-0.6-26.3&#10;&#9;&#9;&#9;&#9;&#9;C590.2,527.3,595.1,528.6,594.6,531.8L594.6,531.8z" style="fill: rgb(35, 35, 40);"/>
			</g>
			<g>
				<path class="st5" d="M601.1,545.4c0.2,3.6,0.3,7.1,0.5,10.7c0.2,3.3-4.9,3.3-5.1,0c-0.2-3.6-0.3-7.1-0.5-10.7&#10;&#9;&#9;&#9;&#9;&#9;C595.8,542.1,600.9,542.1,601.1,545.4L601.1,545.4z" style="fill: rgb(35, 35, 40);"/>
			</g>
			<g>
				<path class="st5" d="M619.8,582.9c-5.1-3.2-10.2-6.3-15.3-9.5c-2.8-1.7-0.2-6.1,2.6-4.4c5.1,3.2,10.2,6.3,15.3,9.5&#10;&#9;&#9;&#9;&#9;&#9;C625.1,580.3,622.6,584.7,619.8,582.9L619.8,582.9z" style="fill: rgb(35, 35, 40);"/>
			</g>
			<g>
				<path class="st5" d="M618.1,572.1c-2.7-1.7-5.4-3.4-8.1-5.1c-2.8-1.7-0.2-6.1,2.6-4.4c2.7,1.7,5.4,3.4,8.1,5.1&#10;&#9;&#9;&#9;&#9;&#9;C623.4,569.4,620.8,573.8,618.1,572.1L618.1,572.1z" style="fill: rgb(35, 35, 40);"/>
			</g>
			<g>
				<path class="st5" d="M636.8,623.5c-4.2-2.6-8.4-5.2-12.6-7.8c-2.8-1.7-0.2-6.1,2.6-4.4c4.2,2.6,8.4,5.2,12.6,7.8&#10;&#9;&#9;&#9;&#9;&#9;C642.2,620.8,639.6,625.2,636.8,623.5L636.8,623.5z" style="fill: rgb(35, 35, 40);"/>
			</g>
			<g>
				<path class="st5" d="M614.5,609.1c-1.4-1-2.7-2-4.1-3c-1.1-0.8-1.7-2.2-0.9-3.5c0.6-1.1,2.4-1.7,3.5-0.9c1.4,1,2.7,2,4.1,3&#10;&#9;&#9;&#9;&#9;&#9;c1.1,0.8,1.7,2.2,0.9,3.5C617.4,609.3,615.6,610,614.5,609.1L614.5,609.1z" style="fill: rgb(35, 35, 40);"/>
			</g>
			<g>
				<path class="st5" d="M692,630.5c-7.5-1.7-14.2-5.2-20.1-10c-2.5-2.1,1.1-5.7,3.6-3.6c5.2,4.3,11.2,7.2,17.8,8.7&#10;&#9;&#9;&#9;&#9;&#9;C696.5,626.4,695.2,631.3,692,630.5L692,630.5z" style="fill: rgb(35, 35, 40);"/>
			</g>
			<g>
				<path class="st5" d="M662.9,613.8c-1-1.4-2-2.7-3-4.1c-0.8-1.1-0.2-2.9,0.9-3.5c1.3-0.7,2.6-0.2,3.5,0.9c1,1.4,2,2.7,3,4.1&#10;&#9;&#9;&#9;&#9;&#9;c0.8,1.1,0.2,2.9-0.9,3.5C665,615.4,663.7,614.9,662.9,613.8L662.9,613.8z" style="fill: rgb(35, 35, 40);"/>
			</g>
		</g>
</svg>