<?xml version="1.0" encoding="utf-8"?>
<svg id="master-artboard" viewBox="0 0 411.8064880371094 327.41937255859375" version="1.1" xmlns="http://www.w3.org/2000/svg" x="0px" y="0px" style="enable-background:new 0 0 1400 980;" width="411.8064880371094px" height="327.41937255859375px"><rect id="ee-background" x="0" y="0" width="411.8064880371094" height="327.41937255859375" style="fill: white; fill-opacity: 0; pointer-events: none;"/>


<g transform="matrix(1, 0, 0, 1, -823.6773681640625, -648.1935424804688)">
	<path class="st1" d="M1046.9,932.6H878.2v-17.7c0-5.9,4.8-10.7,10.7-10.7h147.3c5.9,0,10.7,4.8,10.7,10.7V932.6z" style="fill: rgb(254, 218, 126);"/>
	<path class="st1" d="M1025.1,890h-125c-4.8,0-8.8,3.9-8.8,8.8v5.4h142.5v-5.4C1033.8,893.9,1029.9,890,1025.1,890z" style="fill: rgb(254, 218, 126);"/>
	<path class="st1" d="M1018.3,881.3H906.8c-4.8,0-8.8,3.9-8.8,8.8v1.9h129v-1.9C1027,885.3,1023.1,881.3,1018.3,881.3z" style="fill: rgb(254, 218, 126);"/>
	<g>
		
			<path d="M 1086.699951 727.299988 H 1120.599953 V 952.499985 H 1086.699951 V 727.299988 Z" transform="matrix(0.6011 -0.7991 0.7991 0.6011 -230.96 1216.9926)" class="st2" style="fill: rgb(81, 15, 36);"/>
		<path class="st3" d="M1015.4,687.8L1015.4,687.8c1.3,1,1.6,2.8,0.6,4.1l-78.7,104.7c-1,1.3-2.8,1.6-4.1,0.6v0&#10;&#9;&#9;&#9;c-1.3-1-3.1-0.7-4.1,0.6l-9.5,12.7c-1,1.3-0.7,3.1,0.6,4.1l71.9,54.1c1.3,1,3.1,0.7,4.1-0.6l9.5-12.7c1-1.3,0.7-3.1-0.6-4.1l0,0&#10;&#9;&#9;&#9;c-1.3-1-1.6-2.8-0.6-4.1l78.7-104.7c1-1.3,2.8-1.6,4.1-0.6v0c1.3,1,3.1,0.7,4.1-0.6l9.5-12.7c1-1.3,0.7-3.1-0.6-4.1l-71.9-54.1&#10;&#9;&#9;&#9;c-1.3-1-3.1-0.7-4.1,0.6l-9.5,12.7C1013.8,685,1014.1,686.8,1015.4,687.8z" style="fill: rgb(253, 144, 100);"/>
		<path class="st1" d="M1074.2,764.2l-51.4,68.3c-2,2.7-5.8,3.2-8.5,1.2l-66.9-50.3c-2.7-2-3.2-5.8-1.2-8.5l51.4-68.3&#10;&#9;&#9;&#9;c2-2.7,5.8-3.2,8.5-1.2l66.9,50.3C1075.6,757.7,1076.2,761.5,1074.2,764.2z" style="fill: rgb(254, 218, 126);"/>
		<g>
			<path class="st1" d="M1150.1,851.5c2-2.7-0.7-6.3-3.9-5.1c-1.7,0.6-3.3,1.8-4.5,3.3l-18.1,24c-1.2,1.6-1.8,3.4-2,5.2&#10;&#9;&#9;&#9;&#9;c-0.3,3.3,4,5,6,2.3L1150.1,851.5z" style="fill: rgb(254, 218, 126);"/>
			<path class="st1" d="M1210.6,889l-44.9-33.8c-2.5-1.9-6.1-1.4-8,1.1l-23.2,30.8c-1.9,2.5-1.4,6.1,1.1,8l44.9,33.8&#10;&#9;&#9;&#9;&#9;c8.3,6.2,20.1,4.6,26.3-3.7l7.5-10C1220.6,907,1218.9,895.2,1210.6,889z" style="fill: rgb(254, 218, 126);"/>
		</g>
	</g>
</g>





</svg>