<?xml version="1.0" encoding="utf-8"?>
<svg id="master-artboard" viewBox="0 0 338.3226013183594 297.8064880371094" version="1.1" xmlns="http://www.w3.org/2000/svg" x="0px" y="0px" width="338.3226013183594px" height="297.8064880371094px" style="enable-background:new 0 0 1400 980;"><rect id="ee-background" x="0" y="0" width="338.3226013183594" height="297.8064880371094" style="fill: white; fill-opacity: 0; pointer-events: none;"/>





<g transform="matrix(1, 0, 0, 1, -126.129035949707, -320.258056640625)">
		<path class="st5" d="M420.1,406.9v161.8H183.3V406.9c0-13.9,11.3-25.2,25.2-25.2h186.4C408.8,381.7,420.1,393,420.1,406.9z" style="fill: rgb(76, 203, 253);"/>
		<path d="M 247 399 H 353.900002 V 437.700001 H 247 V 399 Z" class="st0" style="fill: rgb(253, 211, 48);"/>
		<path d="M 267.399994 454.600006 H 301.999992 V 568.700005 H 267.399994 V 454.600006 Z" class="st1" style="fill: rgb(255, 255, 255);"/>
		<path d="M 371.299988 454.600006 H 403.799988 V 568.700005 H 371.299988 V 454.600006 Z" class="st1" style="fill: rgb(255, 255, 255);"/>
		<path d="M 200.300003 454.600006 H 232.800003 V 568.700005 H 200.300003 V 454.600006 Z" class="st1" style="fill: rgb(255, 255, 255);"/>
		<path d="M 232.800003 454.600006 H 267.400002 V 568.700005 H 232.800003 V 454.600006 Z" class="st1" style="fill: rgb(255, 255, 255);"/>
		<path d="M 302 454.600006 H 336.599998 V 568.700005 H 302 V 454.600006 Z" class="st1" style="fill: rgb(255, 255, 255);"/>
		<path d="M 336.600006 454.600006 H 371.200005 V 568.700005 H 336.600006 V 454.600006 Z" class="st1" style="fill: rgb(255, 255, 255);"/>
		<path class="st2" d="M423.5,572.1H179.9V406.9c0-15.7,12.8-28.6,28.6-28.6h186.4c15.7,0,28.6,12.8,28.6,28.6V572.1z M186.7,565.3&#10;&#9;&#9;&#9;h229.9V406.9c0-12-9.8-21.7-21.7-21.7H208.5c-12,0-21.7,9.8-21.7,21.7V565.3z" style="fill: rgb(79, 55, 143);"/>
		<path class="st2" d="M407.2,572.1h-39.3V451.2h39.3V572.1z M374.7,565.3h25.7V458h-25.7V565.3z" style="fill: rgb(79, 55, 143);"/>
		<path class="st2" d="M305.4,572.1H264V451.2h41.4V572.1z M270.8,565.3h27.8V458h-27.8V565.3z" style="fill: rgb(79, 55, 143);"/>
		<path class="st2" d="M236.2,572.1h-39.3V451.2h39.3V572.1z M203.7,565.3h25.7V458h-25.7V565.3z" style="fill: rgb(79, 55, 143);"/>
		<path class="st2" d="M270.8,572.1h-41.4V451.2h41.4V572.1z M236.2,565.3H264V458h-27.8V565.3z" style="fill: rgb(79, 55, 143);"/>
		<path class="st2" d="M340.1,572.1h-41.4V451.2h41.4V572.1z M305.4,565.3h27.8V458h-27.8V565.3z" style="fill: rgb(79, 55, 143);"/>
		<path class="st2" d="M374.7,572.1h-41.4V451.2h41.4V572.1z M340.1,565.3h27.8V458h-27.8V565.3z" style="fill: rgb(79, 55, 143);"/>
		<path d="M 222.699997 454.600006 H 242.799997 V 532.000008 H 222.699997 V 454.600006 Z" class="st6" style="fill: none;"/>
		<path d="M 258.299988 454.600006 H 278.399988 V 532.000008 H 258.299988 V 454.600006 Z" class="st6" style="fill: none;"/>
		<path d="M 292.200012 454.600006 H 312.300013 V 532.000008 H 292.200012 V 454.600006 Z" class="st6" style="fill: none;"/>
		<path d="M 327.100006 454.600006 H 347.200006 V 532.000008 H 327.100006 V 454.600006 Z" class="st6" style="fill: none;"/>
		<path d="M 361.600006 454.600006 H 381.700006 V 532.000008 H 361.600006 V 454.600006 Z" class="st6" style="fill: none;"/>
		<path d="M 222.699997 454.600006 H 242.799997 V 532.000008 H 222.699997 V 454.600006 Z" class="st2" style="fill: rgb(79, 55, 143);"/>
		<path d="M 258.299988 454.600006 H 278.399988 V 532.000008 H 258.299988 V 454.600006 Z" class="st2" style="fill: rgb(79, 55, 143);"/>
		<path d="M 327.100006 454.600006 H 347.200006 V 532.000008 H 327.100006 V 454.600006 Z" class="st2" style="fill: rgb(79, 55, 143);"/>
		<path d="M 292.200012 454.600006 H 312.300013 V 532.000008 H 292.200012 V 454.600006 Z" class="st2" style="fill: rgb(79, 55, 143);"/>
		<path d="M 361.600006 454.600006 H 381.700006 V 532.000008 H 361.600006 V 454.600006 Z" class="st2" style="fill: rgb(79, 55, 143);"/>
		<path class="st2" d="M357.3,441.1H243.6v-45.5h113.8V441.1z M250.4,434.3h100.1v-31.9H250.4V434.3z" style="fill: rgb(79, 55, 143);"/>
	</g>




</svg>