<?xml version="1.0" encoding="utf-8"?>
<svg id="master-artboard" viewBox="0 0 335.986 235.19" version="1.1" xmlns="http://www.w3.org/2000/svg" x="0px" y="0px" width="335.9859924316406px" height="235.19000244140625px" enable-background="new 0 0 335.986 235.19">

<path fill="#FFFFFF" stroke="#34525C" stroke-width="2" stroke-miterlimit="10" d="M263.858,182.53V59.717&#10;&#9;c0-1.817-1.592-3.302-3.539-3.302H78.123c-1.946,0-3.539,1.484-3.539,3.302V182.53H263.858z"/>
<g>
	<g>
		<path d="M 82.799997 61.890999 A 1.975 1.975 0 0 1 80.824997 63.865999 A 1.975 1.975 0 0 1 78.849997 61.890999 A 1.975 1.975 0 0 1 80.824997 59.915999 A 1.975 1.975 0 0 1 82.799997 61.890999 Z" fill="#FFFFFF" stroke="#34525C" stroke-width="2" stroke-miterlimit="10"/>
		<path d="M 96.072001 61.890999 A 1.977 1.977 0 0 1 94.095001 63.867999 A 1.977 1.977 0 0 1 92.118001 61.890999 A 1.977 1.977 0 0 1 94.095001 59.913999 A 1.977 1.977 0 0 1 96.072001 61.890999 Z" fill="#FFFFFF" stroke="#34525C" stroke-width="2" stroke-miterlimit="10"/>
	</g>
	<path d="M 89.437999 61.890999 A 1.978 1.978 0 0 1 87.459999 63.868999 A 1.978 1.978 0 0 1 85.481999 61.890999 A 1.978 1.978 0 0 1 87.459999 59.912999 A 1.978 1.978 0 0 1 89.437999 61.890999 Z" fill="#FFFFFF" stroke="#34525C" stroke-width="2" stroke-miterlimit="10"/>
</g>
<path fill="#FFFFFF" stroke="#34525C" stroke-width="2" stroke-miterlimit="10" d="M242.043,66.6H103.695&#10;&#9;c-0.778,0-1.411-0.636-1.411-1.412v-1.694c0-0.776,0.633-1.412,1.411-1.412h138.348c0.776,0,1.413,0.636,1.413,1.412v1.694&#10;&#9;C243.456,65.964,242.819,66.6,242.043,66.6z"/>
<path d="M 78.728996 72.010002 H 259.711998 V 178.985001 H 78.728996 V 72.010002 Z" fill="#FFFFFF" stroke="#34525C" stroke-width="2" stroke-miterlimit="10"/>
<path d="M 175.949997 96.681 H 252.763 V 127.782999 H 175.949997 V 96.681 Z" fill="#FFFFFF" stroke="#34525C" stroke-width="2" stroke-miterlimit="10"/>
<path d="M 132.328003 96.677002 H 166.702003 V 127.779001 H 132.328003 V 96.677002 Z" fill="#84DBFF"/>
<g>
	
		<path d="M 132.328003 137.479996 H 166.702003 V 168.583996 H 132.328003 V 137.479996 Z" fill="#FFFFFF" stroke="#34525C" stroke-width="2" stroke-miterlimit="10"/>
</g>
<g>
	
		<path d="M 86.600998 96.677002 H 123.978996 V 98.104002 H 86.600998 V 96.677002 Z" fill="#FFFFFF" stroke="#34525C" stroke-width="2" stroke-miterlimit="10"/>
	
		<path d="M 86.600998 102.178001 H 123.978996 V 103.605001 H 86.600998 V 102.178001 Z" fill="#FFFFFF" stroke="#34525C" stroke-width="2" stroke-miterlimit="10"/>
	
		<path d="M 86.600998 107.678001 H 123.978996 V 109.105001 H 86.600998 V 107.678001 Z" fill="#FFFFFF" stroke="#34525C" stroke-width="2" stroke-miterlimit="10"/>
	
		<path d="M 86.600998 113.178001 H 123.978996 V 114.606001 H 86.600998 V 113.178001 Z" fill="#FFFFFF" stroke="#34525C" stroke-width="2" stroke-miterlimit="10"/>
	
		<path d="M 86.600998 124.181 H 123.978996 V 125.608 H 86.600998 V 124.181 Z" fill="#FFFFFF" stroke="#34525C" stroke-width="2" stroke-miterlimit="10"/>
	
		<path d="M 86.600998 129.682007 H 123.978996 V 131.109007 H 86.600998 V 129.682007 Z" fill="#FFFFFF" stroke="#34525C" stroke-width="2" stroke-miterlimit="10"/>
	
		<path d="M 86.600998 135.182007 H 123.978996 V 136.610007 H 86.600998 V 135.182007 Z" fill="#FFFFFF" stroke="#34525C" stroke-width="2" stroke-miterlimit="10"/>
	
		<path d="M 86.600998 146.184006 H 123.978996 V 147.611006 H 86.600998 V 146.184006 Z" fill="#FFFFFF" stroke="#34525C" stroke-width="2" stroke-miterlimit="10"/>
</g>
<g>
	
		<path d="M 175.949997 135.337006 H 252.347 V 136.765006 H 175.949997 V 135.337006 Z" fill="#FFFFFF" stroke="#34525C" stroke-width="2" stroke-miterlimit="10"/>
	
		<path d="M 175.949997 140.839005 H 252.347 V 142.266005 H 175.949997 V 140.839005 Z" fill="#FFFFFF" stroke="#34525C" stroke-width="2" stroke-miterlimit="10"/>
	
		<path d="M 175.949997 151.839996 H 252.347 V 153.266996 H 175.949997 V 151.839996 Z" fill="#FFFFFF" stroke="#34525C" stroke-width="2" stroke-miterlimit="10"/>
	
		<path d="M 175.949997 157.339996 H 252.347 V 158.767996 H 175.949997 V 157.339996 Z" fill="#FFFFFF" stroke="#34525C" stroke-width="2" stroke-miterlimit="10"/>
	
		<path d="M 175.949997 168.341995 H 252.347 V 169.768995 H 175.949997 V 168.341995 Z" fill="#FFFFFF" stroke="#34525C" stroke-width="2" stroke-miterlimit="10"/>
</g>
<path d="M 213.496002 78.264999 H 251.075001 V 87.641 H 213.496002 V 78.264999 Z" fill="#EDEEF1"/>
<path d="M 85.678001 80.130997 H 206.527 V 85.775997 H 85.678001 V 80.130997 Z" fill="#FFFFFF" stroke="#34525C" stroke-width="2" stroke-miterlimit="10"/>
<path d="M 242.610992 78.264999 H 252.456992 V 87.641 H 242.610992 V 78.264999 Z" fill="#84DBFF"/>
<path fill="#FFFFFF" d="M249.938,83.256c0.745-0.748,0.745-1.958,0-2.705c-0.749-0.748-1.959-0.748-2.709,0&#10;&#9;c-0.644,0.645-0.731,1.636-0.261,2.377l-1.834,1.836c-0.162,0.16-0.162,0.428,0,0.59l0,0c0.162,0.163,0.428,0.163,0.593,0&#10;&#9;l1.83-1.834C248.3,83.989,249.29,83.902,249.938,83.256z M247.687,82.8c-0.494-0.495-0.494-1.298,0-1.792&#10;&#9;c0.494-0.495,1.295-0.495,1.792,0c0.496,0.494,0.496,1.297,0,1.792C248.981,83.296,248.181,83.296,247.687,82.8z"/>
<path d="M 185.988998 204.798004 H 201.746999 V 206.859004 H 185.988998 V 204.798004 Z" fill="#34525C"/>
<path d="M 158.998993 209.427002 H 209.624992 V 211.488002 H 158.998993 V 209.427002 Z" fill="#34525C"/>
<g>
	
		<path d="M 135.565994 194.098007 H 145.278995 V 203.809008 H 135.565994 V 194.098007 Z" fill="#FFFFFF" stroke="#34525C" stroke-width="2" stroke-miterlimit="10"/>
</g>
<g>
	
		<path d="M 276.949005 123.142998 H 286.662005 V 132.853998 H 276.949005 V 123.142998 Z" fill="#FFFFFF" stroke="#34525C" stroke-width="2" stroke-miterlimit="10"/>
</g>
<g>
	
		<path d="M 190.934998 33.900002 H 200.647998 V 43.611002 H 190.934998 V 33.900002 Z" fill="#FFFFFF" stroke="#34525C" stroke-width="2" stroke-miterlimit="10"/>
</g>
<path fill="#84DBFF" d="M155.145,151.843l-9.795-5.655c-0.199-0.116-0.428-0.176-0.655-0.176c-0.725,0-1.314,0.59-1.314,1.313v11.31&#10;&#9;c0,0.726,0.59,1.313,1.314,1.313c0.228,0,0.456-0.06,0.655-0.177l9.795-5.654c0.409-0.238,0.655-0.664,0.656-1.137&#10;&#9;C155.801,152.506,155.554,152.08,155.145,151.843z"/>
<g>
	<path d="M 25.070999 108.357002 H 26.361999 V 112.226002 H 25.070999 V 108.357002 Z" fill="#34525C"/>
	<path d="M 27.018999 113.299004 H 30.887999 V 114.589004 H 27.018999 V 113.299004 Z" fill="#34525C"/>
	<path d="M 25.070999 115.660004 H 26.361999 V 119.529004 H 25.070999 V 115.660004 Z" fill="#34525C"/>
	<path d="M 20.546 113.299004 H 24.415999 V 114.589004 H 20.546 V 113.299004 Z" fill="#34525C"/>
</g>
<g>
	<path d="M 213.712006 191.464996 H 215.002006 V 195.333996 H 213.712006 V 191.464996 Z" fill="#34525C"/>
	<path d="M 215.658005 196.406006 H 219.527005 V 197.696006 H 215.658005 V 196.406006 Z" fill="#34525C"/>
	<path d="M 213.712006 198.768005 H 215.002006 V 202.637005 H 213.712006 V 198.768005 Z" fill="#34525C"/>
	<path d="M 209.186005 196.406006 H 213.056005 V 197.696006 H 209.186005 V 196.406006 Z" fill="#34525C"/>
</g>
<path d="M 29.301001 81.932999 H 57.744001 V 83.993999 H 29.301001 V 81.932999 Z" fill="#34525C" transform="matrix(1, 0, 0, 1, -0.2959033013682273, -2.3672258123151053)"/>
<path d="M 29.301001 91.288002 H 50.019001 V 93.349002 H 29.301001 V 91.288002 Z" fill="#34525C"/>
<path d="M 20.077999 86.561996 H 65.071999 V 88.622997 H 20.077999 V 86.561996 Z" fill="#34525C"/>



<g>
	<path d="M 311.243011 122.834 H 312.533011 V 126.703 H 311.243011 V 122.834 Z" fill="#34525C"/>
	<path d="M 313.188995 127.774002 H 317.057995 V 129.064002 H 313.188995 V 127.774002 Z" fill="#34525C"/>
	<path d="M 311.243011 130.136993 H 312.533011 V 134.005993 H 311.243011 V 130.136993 Z" fill="#34525C"/>
	<path d="M 306.71701 127.774002 H 310.58701 V 129.064002 H 306.71701 V 127.774002 Z" fill="#34525C"/>
</g>
<g>
	<path d="M 177.720001 18.91 H 179.010001 V 22.779 H 177.720001 V 18.91 Z" fill="#34525C"/>
	<path d="M 179.666 23.851 H 183.535 V 25.141 H 179.666 V 23.851 Z" fill="#34525C"/>
	<path d="M 177.720001 26.212999 H 179.010001 V 30.081999 H 177.720001 V 26.212999 Z" fill="#34525C"/>
	<path d="M 173.192993 23.851 H 177.061993 V 25.141 H 173.192993 V 23.851 Z" fill="#34525C"/>
</g>

<path fill="#84DBFF" d="M74.043,33.808l-24.521,4.545c0,0,7.521-13.025,12.414-21.635C68.183,20.259,72.73,26.465,74.043,33.808z"/>
<path fill="#FFFFFF" stroke="#34525C" stroke-width="2" stroke-miterlimit="10" d="M318.2,220.982v-69.191&#10;&#9;c0-1.817-1.591-3.302-3.538-3.302H231.65c-1.946,0-3.539,1.484-3.539,3.302v69.191H318.2z"/>
<g>
	<g>
		<path d="M 236.327005 153.964996 A 1.975 1.975 0 0 1 234.352005 155.939996 A 1.975 1.975 0 0 1 232.377005 153.964996 A 1.975 1.975 0 0 1 234.352005 151.989996 A 1.975 1.975 0 0 1 236.327005 153.964996 Z" fill="#FFFFFF" stroke="#34525C" stroke-width="2" stroke-miterlimit="10"/>
		<path d="M 249.598994 153.964996 A 1.977 1.977 0 0 1 247.621994 155.941996 A 1.977 1.977 0 0 1 245.644994 153.964996 A 1.977 1.977 0 0 1 247.621994 151.987996 A 1.977 1.977 0 0 1 249.598994 153.964996 Z" fill="#FFFFFF" stroke="#34525C" stroke-width="2" stroke-miterlimit="10"/>
	</g>
	<path d="M 242.965 153.964996 A 1.978 1.978 0 0 1 240.987 155.942996 A 1.978 1.978 0 0 1 239.008999 153.964996 A 1.978 1.978 0 0 1 240.987 151.986996 A 1.978 1.978 0 0 1 242.965 153.964996 Z" fill="#FFFFFF" stroke="#34525C" stroke-width="2" stroke-miterlimit="10"/>
</g>
<path fill="#FFFFFF" stroke="#34525C" stroke-width="2" stroke-miterlimit="10" d="M306.386,158.674h-49.163&#10;&#9;c-0.777,0-1.412-0.636-1.412-1.412v-1.694c0-0.776,0.635-1.412,1.412-1.412h49.163c0.777,0,1.414,0.636,1.414,1.412v1.694&#10;&#9;C307.8,158.038,307.163,158.674,306.386,158.674z"/>
<path d="M 232.257004 164.084 H 314.056007 V 217.437 H 232.257004 V 164.084 Z" fill="#FFFFFF" stroke="#34525C" stroke-width="2" stroke-miterlimit="10"/>
<path fill="#FFFFFF" stroke="#34525C" stroke-width="2" stroke-miterlimit="10" d="M125.845,195.015v-69.191&#10;&#9;c0-1.817-1.592-3.302-3.539-3.302H39.293c-1.945,0-3.538,1.484-3.538,3.302v69.191H125.845z"/>
<g>
	<g>
		<path d="M 43.969998 127.997002 A 1.974 1.974 0 0 1 41.995998 129.971002 A 1.974 1.974 0 0 1 40.021998 127.997002 A 1.974 1.974 0 0 1 41.995998 126.023002 A 1.974 1.974 0 0 1 43.969998 127.997002 Z" fill="#FFFFFF" stroke="#34525C" stroke-width="2" stroke-miterlimit="10"/>
		<path d="M 57.242999 127.997002 A 1.977 1.977 0 0 1 55.265999 129.974002 A 1.977 1.977 0 0 1 53.288999 127.997002 A 1.977 1.977 0 0 1 55.265999 126.020002 A 1.977 1.977 0 0 1 57.242999 127.997002 Z" fill="#FFFFFF" stroke="#34525C" stroke-width="2" stroke-miterlimit="10"/>
	</g>
	<path d="M 50.609001 127.997002 A 1.978 1.978 0 0 1 48.631001 129.975002 A 1.978 1.978 0 0 1 46.653 127.997002 A 1.978 1.978 0 0 1 48.631001 126.019002 A 1.978 1.978 0 0 1 50.609001 127.997002 Z" fill="#FFFFFF" stroke="#34525C" stroke-width="2" stroke-miterlimit="10"/>
</g>
<path fill="#FFFFFF" stroke="#34525C" stroke-width="2" stroke-miterlimit="10" d="M114.03,132.706H64.867&#10;&#9;c-0.778,0-1.412-0.636-1.412-1.412V129.6c0-0.776,0.634-1.412,1.412-1.412h49.163c0.776,0,1.413,0.636,1.413,1.412v1.694&#10;&#9;C115.443,132.07,114.807,132.706,114.03,132.706z"/>
<path d="M 39.900002 138.115997 H 121.699005 V 191.468998 H 39.900002 V 138.115997 Z" fill="#FFFFFF" stroke="#34525C" stroke-width="2" stroke-miterlimit="10"/>
<g>
	<path fill="#84DBFF" d="M297.452,207.153h-8.418c-0.206,0-0.358-0.153-0.358-0.358v-30.511c0-0.205,0.152-0.359,0.358-0.359h8.418&#10;&#9;&#9;c0.204,0,0.357,0.154,0.357,0.359v30.511C297.81,206.982,297.656,207.153,297.452,207.153z"/>
	<path fill="#84DBFF" d="M284.067,207.153h-8.419c-0.205,0-0.358-0.153-0.358-0.358v-21.548c0-0.204,0.153-0.357,0.358-0.357h8.419&#10;&#9;&#9;c0.205,0,0.357,0.153,0.357,0.357v21.548C284.407,206.982,284.253,207.153,284.067,207.153z"/>
	<path fill="#84DBFF" d="M270.664,207.153h-8.42c-0.204,0-0.356-0.153-0.356-0.358v-32.458c0-0.205,0.152-0.358,0.356-0.358h8.42&#10;&#9;&#9;c0.204,0,0.357,0.153,0.357,0.358v32.458C271.021,206.982,270.868,207.153,270.664,207.153z"/>
	<path fill="#84DBFF" d="M257.276,207.153h-8.416c-0.205,0-0.359-0.153-0.359-0.358v-15.999c0-0.205,0.154-0.357,0.359-0.357h8.416&#10;&#9;&#9;c0.205,0,0.357,0.152,0.357,0.357v15.999C257.634,206.982,257.465,207.153,257.276,207.153z"/>
</g>
<path d="M 242.559006 207.526001 H 303.753006 V 211.494001 H 242.559006 V 207.526001 Z" fill="#FFFFFF" stroke="#34525C" stroke-width="2" stroke-miterlimit="10"/>
<path fill="#FFFFFF" stroke="#34525C" stroke-width="2" stroke-miterlimit="10" d="M60.032,155.895c0,0.168-0.014,0.336-0.028,0.503&#10;&#9;c-1.301,0.504-2.839,0.798-4.477,0.798c-1.635,0-3.174-0.294-4.475-0.798c-0.014-0.167-0.029-0.335-0.029-0.503&#10;&#9;c0-2.616,2.016-4.728,4.504-4.728C58.018,151.167,60.032,153.278,60.032,155.895z"/>
<path fill="#FFFFFF" stroke="#34525C" stroke-width="2" stroke-miterlimit="10" d="M57.375,147.88c0,1.272-0.826,2.825-1.848,2.825&#10;&#9;c-1.02,0-1.846-1.553-1.846-2.825c0-1.273,0.826-1.776,1.846-1.776C56.549,146.104,57.375,146.606,57.375,147.88z"/>
<path fill="#FFFFFF" stroke="#34525C" stroke-width="2" stroke-miterlimit="10" d="M60.032,169.672c0,0.168-0.014,0.335-0.028,0.503&#10;&#9;c-1.301,0.504-2.839,0.798-4.477,0.798c-1.635,0-3.174-0.294-4.475-0.798c-0.014-0.168-0.029-0.335-0.029-0.503&#10;&#9;c0-2.616,2.016-4.728,4.504-4.728C58.018,164.944,60.032,167.056,60.032,169.672z"/>
<path fill="#FFFFFF" stroke="#34525C" stroke-width="2" stroke-miterlimit="10" d="M57.375,161.657c0,1.272-0.826,2.825-1.848,2.825&#10;&#9;c-1.02,0-1.846-1.553-1.846-2.825c0-1.273,0.826-1.776,1.846-1.776C56.549,159.881,57.375,160.384,57.375,161.657z"/>
<path fill="#FFFFFF" stroke="#34525C" stroke-width="2" stroke-miterlimit="10" d="M60.032,183.449c0,0.167-0.014,0.335-0.028,0.503&#10;&#9;c-1.301,0.504-2.839,0.798-4.477,0.798c-1.635,0-3.174-0.294-4.475-0.798c-0.014-0.168-0.029-0.336-0.029-0.503&#10;&#9;c0-2.616,2.016-4.729,4.504-4.729C58.018,178.721,60.032,180.833,60.032,183.449z"/>
<path fill="#FFFFFF" stroke="#34525C" stroke-width="2" stroke-miterlimit="10" d="M57.375,175.435c0,1.272-0.826,2.825-1.848,2.825&#10;&#9;c-1.02,0-1.846-1.553-1.846-2.825c0-1.273,0.826-1.776,1.846-1.776C56.549,173.658,57.375,174.161,57.375,175.435z"/>
<path d="M 63.473 147.151993 H 93.42 V 156.130993 H 63.473 V 147.151993 Z" fill="#FFFFFF" stroke="#34525C" stroke-width="2" stroke-miterlimit="10"/>
<path d="M 64.970001 148.649002 H 86.426001 V 154.621002 H 64.970001 V 148.649002 Z" fill="#84DBFF"/>
<path d="M 63.473 160.929993 H 93.42 V 169.908993 H 63.473 V 160.929993 Z" fill="#FFFFFF" stroke="#34525C" stroke-width="2" stroke-miterlimit="10"/>
<path d="M 64.970001 162.425995 H 78.174002 V 168.398995 H 64.970001 V 162.425995 Z" fill="#84DBFF"/>
<path d="M 63.473 174.707001 H 93.42 V 183.686001 H 63.473 V 174.707001 Z" fill="#FFFFFF" stroke="#34525C" stroke-width="2" stroke-miterlimit="10"/>
<path d="M 64.970001 176.203003 H 81.979002 V 182.176003 H 64.970001 V 176.203003 Z" fill="#84DBFF"/>

<g>
	<g>
		<path d="M 223.9429931640625 19.47599983215332 L 228.38099670410156 17.479000091552734 L 228.93499755859375 13.482999801635742 L 232.38900756835938 12.913000106811523 L 234.13699340820312 16.770999908447266 L 238.4739990234375 18.19700050354004 L 242.11500549316406 15.168999671936035 L 244.9669952392578 17.927000045776367 L 242.4409942626953 22.260000228881836 L 244.97900390625 26.047000885009766 L 249.26499938964844 26.87299919128418 L 249.56100463867188 30.2549991607666 L 246.197998046875 30.75200080871582 L 243.8300018310547 35.77399826049805 L 246.78399658203125 39.729000091552734 L 244.2259979248047 42.55699920654297 L 240.41600036621094 40.28799819946289 L 236.41200256347656 42.645999908447266 L 236.1020050048828 47.08100128173828 L 232.21800231933594 47.42300033569336 L 230.63900756835938 43.15399932861328 L 225.8699951171875 41.36600112915039 L 222.9320068359375 44.430999755859375 L 219.8979949951172 41.89400100708008 L 222.20599365234375 38.47700119018555 L 220.0030059814453 33.95899963378906 L 215.51199340820312 33.05099868774414 L 215.19500732421875 29.4689998626709 L 219.7209930419922 28.474000930786133 L 220.90899658203125 23.75 L 217.8990020751953 20.30699920654297 L 220.36700439453125 17.582000732421875 Z" fill="#FFFFFF" stroke="#34525C" stroke-width="2" stroke-miterlimit="10"/>
		<path fill="#84DBFF" d="M225.419,30.839c0.31,3.925,3.749,6.867,7.679,6.559c3.934-0.311,6.872-3.754,6.564-7.679&#10;&#9;&#9;&#9;c-0.31-3.934-3.75-6.875-7.684-6.565C228.049,23.462,225.109,26.904,225.419,30.839z"/>
	</g>
</g>
<g>
	<g>
		<g>
			<g>
				<g>
					<g>
						
							<path d="M 92.973 16.837999 H 158.717003 V 25.494999 H 92.973 V 16.837999 Z" fill="#FFFFFF" stroke="#34525C" stroke-width="2" stroke-miterlimit="10"/>
					</g>
				</g>
			</g>
		</g>
	</g>
</g>
<g>
	<g>
		<g>
			<g>
				<g>
					<path d="M 108.617996 18.787001 H 156.524998 V 23.549001 H 108.617996 V 18.787001 Z" fill="#84DBFF"/>
				</g>
			</g>
		</g>
	</g>
</g>
<g>
	<g>
		<g>
			<g>
				<g>
					<g>
						
							<path d="M 92.973 32.814999 H 158.717003 V 41.471998 H 92.973 V 32.814999 Z" fill="#FFFFFF" stroke="#34525C" stroke-width="2" stroke-miterlimit="10"/>
					</g>
				</g>
			</g>
		</g>
	</g>
</g>
<g>
	<g>
		<g>
			<g>
				<g>
					<path d="M 125.844002 34.764 H 156.525002 V 39.526 H 125.844002 V 34.764 Z" fill="#84DBFF"/>
				</g>
			</g>
		</g>
	</g>
</g>
<path fill="#84DBFF" d="M83.343,215.663c0,2.938,2.678,5.319,5.98,5.319h29.559c2.317,0,4.197-1.675,4.197-3.736&#10;&#9;c0-1.945-1.668-3.523-3.799-3.699c0.01-0.148,0.023-0.283,0.023-0.433c0-4.347-3.961-7.862-8.846-7.862&#10;&#9;c-0.445,0-0.883,0.038-1.312,0.098c-2-2.311-5.127-3.795-8.647-3.795c-2.845,0-5.426,0.967-7.366,2.55&#10;&#9;c-1.947,1.582-3.239,3.78-3.501,6.253C86.328,210.357,83.343,212.726,83.343,215.663z"/>
<path fill="#84DBFF" d="M319.875,108.323c0,2.938-2.678,5.319-5.98,5.319h-29.559c-2.317,0-4.197-1.675-4.197-3.736&#10;&#9;c0-1.945,1.668-3.523,3.799-3.699c-0.01-0.148-0.023-0.283-0.023-0.433c0-4.347,3.961-7.862,8.846-7.862&#10;&#9;c0.444,0,0.883,0.038,1.312,0.098c2-2.311,5.127-3.795,8.647-3.795c2.845,0,5.425,0.967,7.365,2.55&#10;&#9;c1.947,1.582,3.24,3.78,3.502,6.253C316.89,103.018,319.875,105.386,319.875,108.323z" transform="matrix(1, 0, 0, 1, 5.622161362100329, -32.253452024680804)"/>
</svg>