<?xml version="1.0" encoding="utf-8"?>
<svg id="master-artboard" viewBox="0 0 841.9 595.3" version="1.1" xmlns="http://www.w3.org/2000/svg" x="0px" y="0px" width="841.9000244140625px" height="595.2999877929688px" enable-background="new 0 0 841.9 595.3">
<g transform="matrix(1, 0, 0, 1, -271.88106069792065, 160.5327870955059)">
		<path fill="#1C75BC" d="M743.7,136.5l-11.8-11.8c-9.6-9.6-25.1-9.6-34.6,0c-9.6,9.6-9.6,25.1,0,34.6l11.8,11.8&#10;&#9;&#9;&#9;c4.8,4.8,11,7.2,17.3,7.2s12.5-2.4,17.3-7.2C753.2,161.6,753.2,146,743.7,136.5z M714.5,122.5c4.2,0,8.4,1.4,11.9,4.1l-11.9,11.9&#10;&#9;&#9;&#9;l-11.9-11.9C706.1,123.9,710.3,122.5,714.5,122.5z M699.1,130.1L711,142l-11.9,11.9C693.7,146.9,693.7,137.1,699.1,130.1z&#10;&#9;&#9;&#9; M740.1,167.6c-7.6,7.6-20,7.6-27.6,0l-10-10l27.6-27.6l10,10C747.7,147.6,747.7,160,740.1,167.6z"/>
		<g>
			<path fill="#545662" d="M709,171.1l-1.8-1.8c-1.7,0.7-3.5,1.3-5.4,1.8c1.2-1.1,2.3-2.4,3.4-3.8l-3.6-3.6&#10;&#9;&#9;&#9;&#9;c-3.9,5.1-8.4,8.5-13.3,9.4v-21.6c1.2,0,2.4,0,3.6-0.1c-0.7-1.6-1.1-3.3-1.4-5c-0.7,0-1.5,0-2.2,0.1v-30.7h27&#10;&#9;&#9;&#9;&#9;c0,0.6,0,1.2-0.1,1.8c1.7,0,3.3,0.3,5,0.7c0-0.8,0.1-1.6,0.1-2.5h25.4c-0.3,6.6-1.6,13-3.9,18.9l1.9,1.9c0.7,0.7,1.3,1.4,1.9,2.2&#10;&#9;&#9;&#9;&#9;c3.3-7.8,5.2-16.4,5.2-25.4c0-35.8-29.2-65-65-65s-65,29.2-65,65s29.2,65,65,65c9,0,17.6-1.9,25.4-5.2&#10;&#9;&#9;&#9;&#9;C710.4,172.4,709.7,171.8,709,171.1z M739,85.7c3.9,7.6,6.3,16.1,6.7,25.1h-25.4c-0.2-10.4-1.6-20.1-4.1-28.7&#10;&#9;&#9;&#9;&#9;c7.6,1,15.2,2.4,22.7,4.2L739,85.7z M736,80.5c-7.1-1.6-14.3-2.8-21.5-3.7c-3.2-9-7.6-16.4-12.8-21.4&#10;&#9;&#9;&#9;&#9;C716,59.4,728.1,68.4,736,80.5z M688.3,53.5c8.2,1.5,15.6,10.1,20.5,22.7c-6.8-0.7-13.7-1-20.5-1.1V53.5z M688.3,80.1&#10;&#9;&#9;&#9;&#9;c7.5,0.1,15,0.5,22.4,1.3c2.7,8.6,4.4,18.7,4.6,29.3h-27V80.1z M669.7,55.4c-5.2,5-9.6,12.4-12.8,21.4&#10;&#9;&#9;&#9;&#9;c-7.2,0.9-14.4,2.1-21.5,3.7C643.4,68.4,655.5,59.4,669.7,55.4z M632.5,85.7l0.1,0.6c7.5-1.8,15-3.2,22.7-4.2&#10;&#9;&#9;&#9;&#9;c-2.4,8.5-3.9,18.2-4.1,28.7h-25.4C626.2,101.7,628.6,93.2,632.5,85.7z M632.5,140.8c-3.9-7.6-6.3-16.1-6.7-25.1h25.4&#10;&#9;&#9;&#9;&#9;c0.2,10.4,1.6,20.1,4.1,28.7c-7.6-1-15.2-2.4-22.7-4.2L632.5,140.8z M635.5,145.9c7.1,1.6,14.3,2.8,21.5,3.7&#10;&#9;&#9;&#9;&#9;c3.2,9,7.6,16.4,12.8,21.4C655.5,167.1,643.4,158,635.5,145.9z M683.3,173c-8.2-1.5-15.6-10.1-20.5-22.7c6.8,0.7,13.7,1,20.5,1.1&#10;&#9;&#9;&#9;&#9;V173z M683.3,146.4c-7.5-0.1-15-0.5-22.4-1.3c-2.7-8.6-4.4-18.7-4.6-29.3h27V146.4z M683.3,110.7h-27c0.2-10.7,1.9-20.7,4.6-29.3&#10;&#9;&#9;&#9;&#9;c7.4-0.8,14.9-1.3,22.4-1.3V110.7z M683.3,75.1c-6.9,0.1-13.7,0.4-20.5,1.1c5-12.6,12.3-21.2,20.5-22.7V75.1z"/>
		</g>
	</g>
</svg>